# xmcd
#
# Track frame offsets:
#  150
#  14778
#  28101
#  43401
#  56569
#  69830
#  83399
#  97274
#  110376
#  123847
#  136503
#  149920
#  162618
#  174564
#  187680
#  202482
#  216182
#  230364
#  243525
#  257857
#  271715
#  285796
#  299864
#  314436
#  327127
#  339722
#
# Disc length: 4698 seconds
#
# Revision: 0
# Processed by: cddbd v1.5.1PL2 Copyright (c) Steve Scherf et al.
# Submitted via: Collectorz.com_Music_Collector 6.9
#
DISCID=9412581a
DTITLE=Various Artist - Never Let The Same Bee Sting You Twice [CD2]
DYEAR=2005
DGENRE=Blues - Blues Acoustic - Gospel
TTITLE0=Luke Jordan - If I call you Mama
TTITLE1=Luke Jordan - Tom Brown sits in his prison cell
TTITLE2=Mississippi John Hurt - Frankie
TTITLE3=Mississippi John Hurt - Nobody's dirty business
TTITLE4=Mississippi John Hurt - Ain't no tellin'
TTITLE5=Mississippi John Hurt - Louis Collins
TTITLE6=Mississippi John Hurt - Avalon blues
TTITLE7=Mississippi John Hurt - Big leg blues
TTITLE8=Mississippi John Hurt - Stack O' Lee Blues
TTITLE9=Mississippi John Hurt - Candy Man Blues
TTITLE10=Mississippi John Hurt - Got the Blues, Can't Be Satisfied
TTITLE11=Mississippi John Hurt - Blessed be the name
TTITLE12=Mississippi John Hurt - Praying On The Old Camp Ground
TTITLE13=Mississippi John Hurt - Blue Harvest Blues
TTITLE14=Mississippi John Hurt - Spike Driver Blues
TTITLE15=Hambone Willie Newbern - She Could Toodle-Oo
TTITLE16=Hambone Willie Newbern - Nobody Knows (What The Good Deacon Does)
TTITLE17=Hambone Willie Newbern - Shelby County Workhouse
TTITLE18=Hambone Willie Newbern - Way Down In Arkansas
TTITLE19=Hambone Willie Newbern - Hambone Willie's Dreamy Eyed Woman's Blues
TTITLE20=Hambone Willie Newbern - Roll And Tumble Blues
TTITLE21=Eli Framer - Framer's Blues
TTITLE22=Eli Framer - God Didn't Make No Monkey Man
TTITLE23=Louie Lasky - How You Want Your Rollin' Done?
TTITLE24=Louie Lasky - Teasin' Brown Blues
TTITLE25=Louie Lasky - Caroline
EXTD=
EXTT0=
EXTT1=
EXTT2=
EXTT3=
EXTT4=
EXTT5=
EXTT6=
EXTT7=
EXTT8=
EXTT9=
EXTT10=
EXTT11=
EXTT12=
EXTT13=
EXTT14=
EXTT15=
EXTT16=
EXTT17=
EXTT18=
EXTT19=
EXTT20=
EXTT21=
EXTT22=
EXTT23=
EXTT24=
EXTT25=
PLAYORDER=
